# xmcd CD database file
#
# Track frame offsets:
#	150
#	15969
#	32787
#	49825
#	68541
#	82632
#
# Disc length: 1326 seconds
#
# Revision: 0
# Processed by: cddbd v1.5.1PL2 Copyright (c) Steve Scherf et al.
# Submitted via: CDex 1.50
#
DISCID=35052c06
DTITLE=Zack Hexum - Realistic Fantasy
DYEAR=2005
DGENRE=Jazz
TTITLE0=Realistic Fantasy
TTITLE1=Work of Art
TTITLE2=Treat Me Bad
TTITLE3=Some of the Time
TTITLE4=Two Times Two
TTITLE5=We Won't Be
EXTD=YEAR: 2005
EXTT0=
EXTT1=
EXTT2=
EXTT3=
EXTT4=
EXTT5=
PLAYORDER=
